<svg xmlns="http://www.w3.org/2000/svg" version="1.1" xmlns:xlink="http://www.w3.org/1999/xlink" xmlns:svgjs="http://svgjs.com/svgjs" width="1920" height="1080" preserveAspectRatio="none" viewBox="0 0 1920 1080"><g mask="url(&quot;#SvgjsMask1054&quot;)" fill="none"><rect width="1920" height="1080" x="0" y="0" fill="url(#SvgjsLinearGradient1055)"></rect><path d="M1920 0L1208.17 0L1920 342.6z" fill="rgba(255, 255, 255, .1)"></path><path d="M1208.17 0L1920 342.6L1920 430.90000000000003L1120.92 0z" fill="rgba(255, 255, 255, .075)"></path><path d="M1120.92 0L1920 430.90000000000003L1920 574.87L516.7 0z" fill="rgba(255, 255, 255, .05)"></path><path d="M516.6999999999998 0L1920 574.87L1920 642.45L248.2899999999998 0z" fill="rgba(255, 255, 255, .025)"></path><path d="M0 1080L33.18 1080L0 934.97z" fill="rgba(0, 0, 0, .1)"></path><path d="M0 934.97L33.18 1080L155.95 1080L0 825.32z" fill="rgba(0, 0, 0, .075)"></path><path d="M0 825.3199999999999L155.95 1080L163.92999999999998 1080L0 390.50999999999993z" fill="rgba(0, 0, 0, .05)"></path><path d="M0 390.51L163.92999999999998 1080L920.31 1080L0 370.92z" fill="rgba(0, 0, 0, .025)"></path></g><defs><mask id="SvgjsMask1054"><rect width="1920" height="1080" fill="#ffffff"></rect></mask><linearGradient x1="10.94%" y1="-19.44%" x2="89.06%" y2="119.44%" gradientUnits="userSpaceOnUse" id="SvgjsLinearGradient1055"><stop stop-color="rgba(75, 44, 167, 1)" offset="0"></stop><stop stop-color="rgba(39, 14, 94, 1)" offset="1"></stop></linearGradient></defs></svg>